<svg data-v-0dd9719b="" version="1.0" xmlns="http://www.w3.org/2000/svg" xmlns:xlink="http://www.w3.org/1999/xlink" width="100%" height="100%" viewBox="0 0 340.000000 250.000000" preserveAspectRatio="xMidYMid meet" color-interpolation-filters="sRGB" style="margin: auto;"> <rect data-v-0dd9719b="" x="0" y="0" width="100%" height="100%" fill="#ffffff" fill-opacity="1" class="background"></rect> <rect data-v-0dd9719b="" x="0" y="0" width="100%" height="100%" fill="url(#watermark)" fill-opacity="1" class="watermarklayer"></rect> <g data-v-0dd9719b="" fill="#79acf2" class="icon-text-wrapper icon-svg-group iconsvg" transform="translate(54.714996337890625,95)"><g class="iconsvg-imagesvg" transform="translate(0,0)"><g><rect fill="#79acf2" fill-opacity="0" stroke-width="2" x="0" y="0" width="60" height="60" class="image-rect"></rect> <svg filter="url(#colors394417869)" x="0" y="0" width="60" height="60" filtersec="colorsf74765909" class="image-svg-svg primary" style="overflow: visible;"><svg xmlns="http://www.w3.org/2000/svg" viewBox="0.7999999999999998 0.7999999999999998 91.09999 91.1"><path d="M45.1 21.5L11.6 55M37 47l26.8-26.8m-8.1 25.6L29 72.5m52.2-34.8L47.6 71.3m42.3-24.9L46.4 2.8 2.8 46.4l43.5 43.5 43.6-43.5zM45.1 21.5L11.6 55M37 47l26.8-26.8m-8.1 25.6L29 72.5m52.2-34.8L47.6 71.3m42.3-24.9L46.4 2.8 2.8 46.4l43.5 43.5 43.6-43.5z" fill="none" stroke="#333" stroke-width="4" stroke-miterlimit="10"></path></svg></svg> <defs><filter id="colors394417869"><feColorMatrix type="matrix" values="0 0 0 0 0.0625  0 0 0 0 0.0078125  0 0 0 0 0.59765625  0 0 0 1 0" class="icon-fecolormatrix"></feColorMatrix></filter> <filter id="colorsf74765909"><feColorMatrix type="matrix" values="0 0 0 0 0.99609375  0 0 0 0 0.99609375  0 0 0 0 0.99609375  0 0 0 1 0" class="icon-fecolormatrix"></feColorMatrix></filter> <filter id="colorsb3207596959"><feColorMatrix type="matrix" values="0 0 0 0 0  0 0 0 0 0  0 0 0 0 0  0 0 0 1 0" class="icon-fecolormatrix"></feColorMatrix></filter></defs></g></g> <g transform="translate(67,1.8650016784667969)"><g data-gra="path-name" fill-rule="" class="tp-name iconsvg-namesvg"><g transform="scale(1)"><g><path d="M31.73-39.98L33.99-39.98 33.99 2.48 32.56 2.48 6.71-36.24 6.71 2.48 4.4 2.48 4.4-39.98 7.21-39.98 31.73-3.19 31.73-39.98ZM66-13.26L66-12.87 43.73-12.87Q43.73-6.49 46.7-2.83 49.66 0.82 54.84 0.82L54.84 0.82Q58.25 0.82 60.2-0.55 62.15-1.93 63.47-5.22L63.47-5.22 65.45-4.29Q64.19-0.55 61.55 1.24 58.91 3.02 54.78 3.02L54.78 3.02Q50.77 3.02 47.71 1.1 44.66-0.82 42.98-4.43 41.3-8.03 41.3-12.87L41.3-12.87Q41.3-17.6 42.9-21.2 44.5-24.8 47.33-26.81 50.16-28.82 53.79-28.82L53.79-28.82Q59.51-28.82 62.75-24.64 66-20.46 66-13.26L66-13.26ZM43.84-15.07L43.84-15.07 63.64-15.07Q63.2-20.63 60.66-23.62 58.14-26.62 53.79-26.62L53.79-26.62Q49.72-26.62 47.02-23.48 44.33-20.35 43.84-15.07ZM95.37 2.48L92.45 2.48 83.11-11.33 73.64 2.48 70.95 2.48 81.95-13.09 71.22-28.27 74.14-28.27 83.27-14.96 92.45-28.27 95.04-28.27 84.42-13.09 95.37 2.48ZM103.18-38.88L103.18-38.88Q104.22-38.88 104.77-38.31 105.32-37.73 105.32-36.74L105.32-36.74Q105.32-35.7 104.77-35.15 104.22-34.59 103.18-34.59L103.18-34.59Q102.19-34.59 101.61-35.17 101.03-35.75 101.03-36.74L101.03-36.74Q101.03-37.73 101.64-38.31 102.24-38.88 103.18-38.88ZM101.97-28.27L104.39-28.27 104.39 2.48 101.97 2.48 101.97-28.27ZM124.41-42.35L124.41-42.35Q126.94-42.35 128.26-41.58L128.26-41.58 128.26-39.55Q126.61-40.2 124.52-40.2L124.52-40.2Q118.63-40.2 118.63-33.99L118.63-33.99 118.63-28.27 126.77-28.27 126.77-26.07 118.63-26.07 118.63 2.48 116.27 2.48 116.27-26.07 110.99-26.07 110.99-28.27 116.27-28.27 116.27-34.21Q116.27-38.06 118.44-40.2 120.61-42.35 124.41-42.35ZM133.59-41.8L135.96-41.8 135.96 2.48 133.59 2.48 133.59-41.8ZM165.6-28.27L167.97-28.27 151.41 13.92 148.94 13.92 153.94 2.2 142.06-28.27 144.59-28.27 154.99-0.94 165.6-28.27Z" transform="translate(-4.400000095367432, 42.349998474121094)"></path></g> <!----> <!----> <!----> <!----> <!----> <!----> <!----></g></g> <!----></g></g><defs v-gra="od"></defs></svg>